HIERARCHY
ROOT Hips
{
  OFFSET 267.745 86.9975 -272.335
  CHANNELS 6 Xposition Yposition Zposition Zrotation Xrotation Yrotation
  JOINT LeftUpLeg
  {
    OFFSET 8.64259 1.95398 -2.38835
    CHANNELS 3 Zrotation Xrotation Yrotation
    JOINT LeftLeg
    {
      OFFSET 43.7702 0 0
      CHANNELS 3 Zrotation Xrotation Yrotation
      JOINT LeftFoot
      {
        OFFSET 40.6238 0 0
        CHANNELS 3 Zrotation Xrotation Yrotation
        JOINT LeftToeBase
        {
          OFFSET 12.7242 0 0
          CHANNELS 3 Zrotation Xrotation Yrotation
          End Site
          {
            OFFSET 0 0 0
          }
        }
      }
    }
  }
  JOINT RightUpLeg
  {
    OFFSET -8.2249 1.95398 -2.59336
    CHANNELS 3 Zrotation Xrotation Yrotation
    JOINT RightLeg
    {
      OFFSET 43.5653 0 0
      CHANNELS 3 Zrotation Xrotation Yrotation
      JOINT RightFoot
      {
        OFFSET 40.6238 0 0
        CHANNELS 3 Zrotation Xrotation Yrotation
        JOINT RightToeBase
        {
          OFFSET 12.7242 0 0
          CHANNELS 3 Zrotation Xrotation Yrotation
          End Site
          {
            OFFSET 0 0 0
          }
        }
      }
    }
  }
  JOINT Spine
  {
    OFFSET 0.165834 0.87714 6.61349
    CHANNELS 3 Zrotation Xrotation Yrotation
    JOINT Spine1
    {
      OFFSET 7.38963 1.71661e-005 0
      CHANNELS 3 Zrotation Xrotation Yrotation
      JOINT Spine2
      {
        OFFSET 11.9445 1.14441e-005 0
        CHANNELS 3 Zrotation Xrotation Yrotation
        JOINT Spine3
        {
          OFFSET 14.7254 4.19617e-005 0
          CHANNELS 3 Zrotation Xrotation Yrotation
          JOINT Spine4
          {
            OFFSET 10.9679 0 0
            CHANNELS 3 Zrotation Xrotation Yrotation
            JOINT RightShoulder
            {
              OFFSET 2.46616 -1.6653 3.69651
              CHANNELS 3 Zrotation Xrotation Yrotation
              JOINT RightArm
              {
                OFFSET 13.0012 0 0
                CHANNELS 3 Zrotation Xrotation Yrotation
                JOINT RightForeArm
                {
                  OFFSET 28.7848 1.52588e-005 0
                  CHANNELS 3 Zrotation Xrotation Yrotation
                  JOINT RightHand
                  {
                    OFFSET 26.5688 1.52588e-005 0
                    CHANNELS 3 Zrotation Xrotation Yrotation
                    End Site
                    {
                      OFFSET 0 0 0
                    }
                  }
                }
              }
            }
            JOINT LeftShoulder
            {
              OFFSET 2.38034 -1.29275 -3.7523
              CHANNELS 3 Zrotation Xrotation Yrotation
              JOINT LeftArm
              {
                OFFSET 16.3182 6.10352e-005 0
                CHANNELS 3 Zrotation Xrotation Yrotation
                JOINT LeftForeArm
                {
                  OFFSET 27.0901 0 0
                  CHANNELS 3 Zrotation Xrotation Yrotation
                  JOINT LeftHand
                  {
                    OFFSET 24.5451 1.52588e-005 0
                    CHANNELS 3 Zrotation Xrotation Yrotation
                    End Site
                    {
                      OFFSET 0 0 0
                    }
                  }
                }
              }
            }
            JOINT Neck
            {
              OFFSET 5.0226 -0.0266342 0
              CHANNELS 3 Zrotation Xrotation Yrotation
              JOINT Head
              {
                OFFSET 6.69364 2.86102e-005 0
                CHANNELS 3 Zrotation Xrotation Yrotation
                End Site
                {
                  OFFSET 0 0 0
                }
              }
            }
          }
        }
      }
    }
  }
}
MOTION
Frames:	9
Frame Time:	0.0416667
-257.429 90.085 306.558 -101.79 -34.5724 -94.5255 -179.628 12.0365 87.5064 -5.12199 -12.9675 4.09192 53.2149 -4.94188 -2.9045 48.3264 -1.42451 13.7784 169.759 -1.56189 80.9981 -35.1499 -24.4542 0.546564 71.0677 3.57533 26.9805 24.5811 1.0894 -0.316009 -1.52116 9.08699 -87.9964 8.72197 -2.14587 4.10475 -2.95395 -1.96331 4.19501 -25.4674 -3.27971 3.27125 -5.4547 -3.2797 3.27125 67.448 -53.6247 -132.209 22.9568 -26.0429 -24.9132 2.24888 -13.4367 -21.1154 -17.647 -1.10086 2.07113 -73.1732 -10.7555 109.679 -64.2437 -18.7769 -0.46104 19.7074 32.8227 -21.6181 -8.30793 -0.0670829 -4.82249 15.5677 28.8297 -54.4167 -143.741 -3.35984 8.01599 
-253.098 90.7959 301.198 -104.736 -36.7786 -100.768 -179.521 9.36015 83.948 -12.2786 -2.82891 1.21012 52.0368 -0.22112 4.76788 48.4711 -1.25455 16.0045 168.098 0.595025 78.2302 -35.6862 -24.5909 2.18588 74.1643 0.182952 20.6761 22.6051 1.55795 -0.0793314 -1.7628 9.81978 -87.7497 7.26277 -2.54974 4.55445 -4.41402 -2.34704 4.66198 -26.926 -3.79984 3.57917 -6.91337 -3.79985 3.57915 71.1919 -54.7561 -126.572 22.6576 -20.0104 -29.275 0.994161 -19.5278 -16.2859 -16.644 -0.619344 -0.870845 -72.0817 -15.6557 111.166 -61.867 -10.9219 -9.1387 19.3878 35.6259 -22.4311 -11.352 -0.034081 -5.08364 22.4754 23.2354 -54.1094 -139.193 -10.4681 15.2629 
-250.028 91.4411 295.52 -105.998 -40.22 -103.354 -175.795 10.8821 83.12 -39.4041 -5.37734 0.280455 57.9822 3.8105 4.0225 46.8025 -1.52758 11.1624 170.115 3.33707 80.6894 -36.1113 -18.7066 1.86835 72.7011 2.11057 20.0435 19.9993 2.27029 -0.439544 -2.09339 9.88931 -87.9396 7.13818 -3.29431 4.20845 -4.53591 -3.10609 4.34911 -27.0724 -4.40624 3.02447 -7.05975 -4.40624 3.02447 74.5631 -55.4354 -121.652 25.9621 -13.9998 -26.4554 1.49256 -21.123 -12.2906 -14.5643 -0.58031 -0.609703 -72.024 -19.4667 110.388 -57.6259 -5.95411 -15.5923 18.5352 37.7714 -21.8855 -10.2794 -0.0162235 -5.3437 24.274 17.8149 -53.9205 -120.548 -22.2035 32.1008 
-247.247 91.2281 289.775 -102.544 -47.6742 -100.258 -176.134 10.7504 87.0105 -55.873 2.04224 2.05968 56.044 2.4719 4.80915 51.2085 -1.38146 14.0586 173.578 8.80929 86.5638 -35.3571 -9.65251 1.31391 71.9918 3.60896 17.534 18.6412 2.90754 -1.94398 -2.85911 9.13209 -88.8999 8.67124 -5.21704 2.52469 -2.99211 -5.1009 2.75222 -25.6084 -5.73399 0.835642 -5.59578 -5.73399 0.835638 77.6633 -53.6324 -118.092 28.0197 -7.65925 -16.8413 -0.530588 -24.9117 -11.3733 -9.91188 -0.416495 -0.276224 -71.0684 -30.5661 110.131 -46.7201 -3.49069 -19.0625 16.3045 34.1169 -23.1264 -6.18065 -0.0696639 -5.10072 15.4682 12.1302 -49.3415 -63.2303 -10.7727 60.9499 
-243.226 91.0238 284.627 -100.061 -56.2991 -95.7362 -178.469 6.29179 93.6817 -57.4734 8.73885 5.04606 58.0068 3.27053 4.44492 50.317 -1.50507 12.4025 174.771 13.3746 91.0064 -32.3153 -4.43213 2.15411 67.4926 5.22436 13.4455 19.9537 2.49853 -1.63026 -3.65552 8.65785 -89.7917 9.60118 -7.19406 0.967386 -2.05038 -7.14447 1.28467 -24.7439 -7.15043 -1.2509 -4.73125 -7.15041 -1.25091 80.4767 -53.8892 -113.995 25.8738 -4.32533 -10.6581 0.254312 -26.2312 -8.48653 -7.95213 -0.408583 0.851811 -71.7932 -39.0592 107.372 -37.6075 -1.89154 -22.9004 14.9997 29.6434 -25.8502 -2.32608 -0.0905967 -4.5543 12.2636 8.38028 -31.5202 -22.2488 10.932 32.176 
-237.878 91.2547 279.72 -99.8868 -62.2291 -95.4005 -178.626 -0.637039 97.0094 -46.7937 16.2908 7.51472 58.6823 1.69048 -1.58178 52.3978 -1.6245 11.507 174.646 16.4022 90.241 -27.5944 -2.67261 2.5566 60.1091 7.74699 11.0082 21.8657 2.06822 -2.07477 -3.77384 8.40593 -89.8364 10.1085 -7.4457 0.94812 -1.54157 -7.39669 1.27668 -24.2461 -7.38447 -1.34611 -4.2335 -7.38445 -1.34612 83.7567 -58.3868 -107.919 21.992 -5.20937 -6.5522 3.85365 -20.0485 -4.23533 -10.1433 -0.508025 0.656029 -75.0535 -36.4967 101.889 -35.5115 2.93187 -29.7032 12.4659 27.8865 -24.9981 -2.40282 -0.088429 -5.15093 11.8123 4.87648 -33.9987 -23.4544 7.65258 32.2476 
-231.199 91.0157 274.702 -101.722 -65.0222 -97.6751 -177.993 -5.44043 95.7044 -34.9713 24.6123 8.34722 63.5276 4.82099 0.689809 55.7412 -2.10454 7.3639 174.485 17.7993 87.4296 -21.1111 -4.29618 2.39926 52.9642 9.63546 8.54752 32.9594 -0.902259 -5.10635 -3.45022 8.31427 -89.8834 10.2833 -6.82084 0.818554 -1.37012 -6.77816 1.11933 -24.0471 -6.75001 -1.27893 -4.03445 -6.74999 -1.27892 88.8615 -59.1655 -100.697 22.9455 0.179731 -1.77098 1.57371 -21.8441 -5.64606 -8.10375 -0.443917 1.18099 -77.7837 -40.4645 96.969 -29.6029 5.31295 -35.4447 14.7272 29.3985 -29.7593 -4.11648 -0.0692167 -5.88626 11.3493 2.38202 -30.3 -22.0753 5.21764 28.0449 
-224.292 91.2068 269.151 -104.71 -64.5754 -101.095 -176.02 -7.11392 93.1243 -26.4951 27.0304 6.33485 67.7343 11.101 12.2842 49.4376 -2.07726 3.63702 174.681 17.8893 84.9757 -15.8154 4.49604 1.14141 55.7213 9.73167 19.8831 38.1712 -2.30989 -5.17471 -2.76716 8.34025 -89.8159 10.222 -5.42952 0.828675 -1.43803 -5.38778 1.06751 -24.0634 -5.4268 -0.846375 -4.05079 -5.42682 -0.846382 94.7807 -59.9292 -92.3953 22.4081 -0.59493 0.921265 -0.454473 -24.0612 -8.57139 -2.95461 -0.143799 0.610109 -80.3962 -42.826 92.6195 -27.1565 7.73877 -36.8971 15.4883 29.0417 -32.8133 -0.379091 -0.111518 -5.68691 9.44968 0.325028 -26.9886 -20.0281 2.86373 25.0098 
-218.366 91.55 264.023 -105.445 -61.9175 -102.51 -175.113 -5.19477 90.3201 -23.0593 24.0161 4.10496 69.7364 11.3108 13.2722 41.3699 -1.39666 -1.80655 171.774 18.4335 84.0466 -18.432 4.14375 2.66933 53.1839 9.17474 22.4381 41.8066 -3.376 -5.06271 -1.9725 8.33412 -89.759 10.2231 -3.82008 0.804345 -1.44259 -3.78096 0.971914 -24.0228 -3.88494 -0.382699 -4.01016 -3.88494 -0.382704 99.6978 -58.908 -85.6331 24.3105 -1.24485 2.58177 -2.91988 -24.197 -13.2532 -3.14549 -0.155203 0.69575 -81.8206 -45.7669 90.5038 -24.7954 9.61213 -33.5149 14.6823 29.4057 -33.5173 -0.925062 -0.111808 -6.05392 11.1603 -1.22936 -21.2753 -21.69 0.856593 19.4265 
